<svg data-token-name="Accessible" width="24" height="24" viewBox="0 0 24 24" fill="none" xmlns="http://www.w3.org/2000/svg">
<path fill-rule="evenodd" clip-rule="evenodd" d="M12.8456 18.0201H14.9128C14.6622 19.179 14.0828 20.1342 13.1745 20.8859C12.2662 21.6376 11.2013 22.0134 9.97987 22.0134C8.60178 22.0134 7.4273 21.528 6.45638 20.557C5.48545 19.5861 5 18.4116 5 17.0336C5 15.8121 5.37584 14.7472 6.12752 13.8389C6.8792 12.9306 7.83445 12.3512 8.99329 12.1007V14.1678C8.39821 14.387 7.91275 14.755 7.53691 15.2718C7.16107 15.7886 6.97315 16.3758 6.97315 17.0336C6.97315 17.8479 7.27069 18.5526 7.86577 19.1477C8.46085 19.7427 9.16554 20.0403 9.97987 20.0403C10.6376 20.0403 11.2248 19.8524 11.7416 19.4765C12.2584 19.1007 12.6264 18.6152 12.8456 18.0201ZM9.97987 9.09396C9.97987 8.34228 10.3087 7.74721 10.9664 7.30872C11.6242 6.87024 12.2975 6.85458 12.9866 7.26174H13.0336V7.30872C13.2528 7.40269 13.4564 7.54362 13.6443 7.73154L14.9597 9.18792C16.0873 10.4094 17.434 11.0201 19 11.0201V12.9933C17.2461 12.9933 15.5861 12.3512 14.0201 11.0671V14.4966H17.0268C17.5593 14.4966 18.0213 14.7002 18.4128 15.1074C18.8043 15.5145 19 15.9843 19 16.5168V22.0134H17.0268V17.0336H12C11.4676 17.0336 10.9978 16.83 10.5906 16.4228C10.1834 16.0157 9.97987 15.5459 9.97987 15.0134V9.09396ZM10.5436 5.42953C10.1678 5.02237 9.97987 4.53692 9.97987 3.97315C9.97987 3.40939 10.1756 2.9396 10.5671 2.56376C10.9586 2.18792 11.4362 2 12 2C12.5638 2 13.0414 2.18792 13.4329 2.56376C13.8244 2.9396 14.0201 3.40939 14.0201 3.97315C14.0201 4.53692 13.8244 5.01454 13.4329 5.40604C13.0414 5.79754 12.5638 5.99329 12 5.99329C11.4362 5.99329 10.9508 5.80537 10.5436 5.42953Z" fill="#3E6787"/>
</svg>
