<svg data-token-name="AddtoShoppingCart" width="24" height="24" viewBox="0 0 24 24" fill="none" xmlns="http://www.w3.org/2000/svg">
<path fill-rule="evenodd" clip-rule="evenodd" d="M8.1875 14.7812C8.1875 14.9375 8.26562 15.0156 8.42188 15.0156H20V17.0312H8C7.46875 17.0312 7.00781 16.8281 6.61719 16.4219C6.22656 16.0156 6.03125 15.5469 6.03125 15.0156C6.03125 14.7031 6.10937 14.3906 6.26562 14.0781L7.625 11.5938L4.01562 4H2V2.03125H5.28125C5.90625 3.34376 6.53125 4.67187 7.15625 6.01562C7.3125 6.29688 7.67187 7.03906 8.23438 8.24219C8.79688 9.44532 9.23437 10.375 9.54688 11.0312H16.5781C18.9219 6.78123 20.2031 4.4375 20.4219 4L22.1562 4.98438L18.3125 11.9688C17.9375 12.6563 17.3594 13 16.5781 13H9.125L8.23438 14.6406L8.1875 14.7812ZM16.625 18.625C17.0313 18.2187 17.5 18.0156 18.0312 18.0156C18.5625 18.0156 19.0234 18.2187 19.4141 18.625C19.8047 19.0313 20 19.5 20 20.0312C20 20.5625 19.8047 21.0234 19.4141 21.4141C19.0234 21.8047 18.5625 22 18.0312 22C17.5 22 17.0313 21.8047 16.625 21.4141C16.2187 21.0234 16.0156 20.5625 16.0156 20.0312C16.0156 19.5 16.2187 19.0313 16.625 18.625ZM6.59375 18.625C7 18.2187 7.46875 18.0156 8 18.0156C8.53125 18.0156 9 18.2187 9.40625 18.625C9.8125 19.0313 10.0156 19.5 10.0156 20.0312C10.0156 20.5625 9.8125 21.0234 9.40625 21.4141C9 21.8047 8.53125 22 8 22C7.46875 22 7.00781 21.8047 6.61719 21.4141C6.22656 21.0234 6.03125 20.5625 6.03125 20.0312C6.03125 19.5 6.21875 19.0313 6.59375 18.625ZM12.0312 9.01562V6.01562H9.03125V4H12.0312V1H14V4H17V6.01562H14V9.01562H12.0312Z" fill="#595454"/>
</svg>
