<svg data-token-name="AmericanExpress" width="24" height="16" viewBox="0 0 24 16" fill="none" xmlns="http://www.w3.org/2000/svg">
<g clip-path="url(#clip0)">
<path d="M23.9202 0.5H0V15.3454H23.9202V0.5Z" fill="white"/>
<path fill-rule="evenodd" clip-rule="evenodd" d="M0 6.01229L0 0.5H23.9202V8.87788H9.47631L9.03741 9.41518L8.5985 8.87788H4.64838V12.639H8.5985L9.01746 12.0619L9.45636 12.639H11.8504V11.7634C12.1075 11.7634 12.3336 11.7634 12.5287 11.7634C12.7237 11.7634 12.8966 11.7169 13.0474 11.6241V12.639H14.6434V12.0619L15.1022 12.639C19.9829 12.639 22.623 12.639 23.0224 12.639C23.4219 12.639 23.7212 12.5395 23.9202 12.3405V15.3454H0L0 7.72368H1.11721L1.33666 7.14658H1.97506L2.21446 7.72368H11.2319V7.14658L11.7107 7.72368H14.1446C14.1446 7.45835 14.1446 7.32568 14.1446 7.32568C14.3641 7.58438 15.0064 7.72368 15.3616 7.72368C15.5984 7.72368 16.0838 7.72368 16.818 7.72368L17.0374 7.14658H17.6758L17.9152 7.72368H20.2893V7.06698L20.7082 7.72368H22.3441V3.96259H20.7082V4.61929L20.2893 3.96259H18.6334V5.07699L18.1347 3.96259C16.41 3.96259 15.4359 3.96259 15.2123 3.96259C14.877 3.96259 14.3242 4.16159 14.1446 4.40039C14.1446 4.40039 14.1446 4.25446 14.1446 3.96259H5.46633L5.18703 4.77849L4.88778 3.96259H2.93267V5.07699L2.45387 3.96259H0.877806L0 6.01229ZM5.12718 9.35548H7.42145V9.97237H5.82544V10.4301H7.38155V11.047H5.82544V11.5246H7.42145V12.1614H5.12718V9.35548ZM9.03741 10.2112L9.71571 9.35548H10.5736L9.45636 10.7584L10.5736 12.1614H9.71571L9.03741 11.2659L8.3591 12.1614H7.50125L8.61845 10.7584L7.50125 9.35548H8.3591L9.03741 10.2112ZM10.6534 9.35548C11.5578 9.35548 12.1164 9.35548 12.3292 9.35548C12.6484 9.35548 13.207 9.61247 13.207 10.2609C13.207 10.9094 12.6484 11.2421 12.3292 11.2421C12.1164 11.2421 11.7973 11.2421 11.372 11.2421V12.1614H10.6534V9.35548ZM11.3716 9.97237V10.6155C11.6673 10.6155 11.9466 10.6155 12.2095 10.6155C12.6038 10.6155 12.6038 9.97237 12.2095 9.97237C11.9466 9.97237 11.6673 9.97237 11.3716 9.97237ZM13.5262 9.35548C14.4306 9.35548 14.9892 9.35548 15.202 9.35548C15.5212 9.35548 16.0599 9.60252 16.0599 10.251C16.0599 10.6833 15.8071 10.9818 15.3017 11.1465L16.2394 12.1614H15.3516L14.5037 11.1465H14.2244V12.1614H13.5262V9.35548ZM14.2244 9.97237V10.5495C14.5202 10.5495 14.7995 10.5495 15.0623 10.5495C15.4566 10.5495 15.4566 9.97237 15.0623 9.97237C14.7995 9.97237 14.5202 9.97237 14.2244 9.97237ZM16.3591 9.35548H18.6534V9.97237H17.0574V10.4301H18.6135V11.047H17.0574V11.5246H18.6534V12.1614H16.3591V9.35548ZM18.9925 11.5246C19.7914 11.5246 20.2902 11.5246 20.4888 11.5246C20.7867 11.5246 20.7853 11.0669 20.4888 11.0669C20.1922 11.0669 20.1302 11.0669 19.7706 11.0669C19.4109 11.0669 18.8928 10.8772 18.8928 10.2311C18.8928 9.58496 19.4498 9.35548 19.7706 9.35548C19.9844 9.35548 20.5098 9.35548 21.3466 9.35548L21.0673 9.97237C20.4392 9.97237 20.0269 9.97237 19.8304 9.97237C19.5357 9.97237 19.5279 10.45 19.8304 10.45C20.1329 10.45 20.2294 10.45 20.6484 10.45C21.0673 10.45 21.4065 10.7466 21.4065 11.246C21.4065 11.7454 21.0581 12.1614 20.4289 12.1614C20.0095 12.1614 19.5307 12.1614 18.9925 12.1614V11.5246ZM21.586 11.5246C22.385 11.5246 22.8837 11.5246 23.0823 11.5246C23.3802 11.5246 23.3788 11.0669 23.0823 11.0669C22.7858 11.0669 22.7238 11.0669 22.3641 11.0669C22.0044 11.0669 21.4863 10.8772 21.4863 10.2311C21.4863 9.58496 22.0433 9.35548 22.3641 9.35548C22.578 9.35548 23.1033 9.35548 23.9402 9.35548L23.6608 9.97237C23.0327 9.97237 22.6204 9.97237 22.4239 9.97237C22.1292 9.97237 22.1215 10.45 22.4239 10.45C22.7264 10.45 22.8229 10.45 23.2419 10.45C23.6608 10.45 24 10.7466 24 11.246C24 11.7454 23.6516 12.1614 23.0224 12.1614C22.603 12.1614 22.1242 12.1614 21.586 12.1614V11.5246ZM0 7.24608L1.21696 4.44019H2.13466L3.33167 7.24608H2.53367L2.31421 6.66898H0.997506L0.778055 7.24608H0ZM1.25686 6.05209H2.05486L1.65586 5.07699L1.25686 6.05209ZM5.17706 6.22279L5.80549 4.44019H6.94264V7.24608H6.24439V5.11679L5.48628 7.24608H5.18703H4.86783L4.10973 5.11679V7.24608H3.41147V4.44019H4.54863L5.17706 6.22279ZM7.42145 4.44019H9.71571V5.05709H8.1197V5.51479H9.67581V6.13169H8.1197V6.60928H9.71571V7.24608H7.42145V4.44019ZM10.1347 4.44019C11.0391 4.44019 11.5977 4.44019 11.8105 4.44019C12.1297 4.44019 12.6683 4.68723 12.6683 5.33569C12.6683 5.76799 12.4156 6.06649 11.9102 6.23118L12.8479 7.24608H11.9601L11.1122 6.23118H10.8329V7.24608H10.1347V4.44019ZM10.8329 5.05709V5.63419C11.1287 5.63419 11.408 5.63419 11.6708 5.63419C12.0651 5.63419 12.0651 5.05709 11.6708 5.05709C11.408 5.05709 11.1287 5.05709 10.8329 5.05709ZM12.9676 7.24608V4.44019H13.6658V7.24608H12.9676ZM16.1796 4.44019V5.07699C15.6475 5.07699 15.3815 5.07699 15.3815 5.07699C14.4809 5.07699 14.4809 6.60928 15.3815 6.60928C15.3815 6.60928 15.4813 6.60928 15.6808 6.60928C15.4813 7.03382 15.3815 7.24608 15.3815 7.24608C14.5037 7.24608 14.0249 6.70036 14.0249 5.84314C14.0249 4.98591 14.5243 4.44019 15.3815 4.44019C15.3815 4.44019 15.6475 4.44019 16.1796 4.44019ZM15.6908 7.24608L16.9077 4.44019H17.8254L19.0224 7.24608H18.2244L18.005 6.66898H16.6883L16.4688 7.24608H15.6908ZM16.9476 6.05209H17.7456L17.3466 5.07699L16.9476 6.05209ZM19.1122 7.24608V4.44019H20.01L21.1471 6.19138V4.44019H21.8454V7.24608H21.0075L19.8304 5.43519V7.24608H19.1122Z" fill="#006CD2"/>
</g>
<defs>
<clipPath id="clip0">
<rect width="24" height="14.8454" fill="white" transform="translate(0 0.5)"/>
</clipPath>
</defs>
</svg>
