<svg data-token-name="Calendar" width="24" height="24" viewBox="0 0 24 24" fill="none" xmlns="http://www.w3.org/2000/svg">
<path fill-rule="evenodd" clip-rule="evenodd" d="M18.9859 19.9939V9.02278H5.01411V19.9939H18.9859ZM15.9853 1.99H18.0013V4.00606H18.9859C19.5173 4.00606 19.9861 4.20923 20.3925 4.61557C20.7988 5.02191 21.002 5.49076 21.002 6.02213V19.9939C21.002 20.5253 20.7988 20.9941 20.3925 21.4005C19.9861 21.8068 19.5173 22.01 18.9859 22.01H5.01411C4.45149 22.01 3.97482 21.8068 3.58411 21.4005C3.1934 20.9941 2.99805 20.5253 2.99805 19.9939V6.02213C2.99805 5.49076 3.1934 5.02191 3.58411 4.61557C3.97482 4.20923 4.45149 4.00606 5.01411 4.00606H5.9987V1.99H8.01477V4.00606H15.9853V1.99ZM17.0167 13.008V18.0248H12V13.008H17.0167Z" fill="#595454"/>
</svg>
