<svg data-token-name="Clock" width="24" height="24" viewBox="0 0 24 24" fill="none" xmlns="http://www.w3.org/2000/svg">
<path fill-rule="evenodd" clip-rule="evenodd" d="M12.5 7V12.1429L17 14.7602L16.25 16L11 12.8776V7H12.5ZM6.33918 17.6608C7.92983 19.2203 9.81675 20 12 20C14.1832 20 16.0624 19.2125 17.6374 17.6374C19.2125 16.0624 20 14.1832 20 12C20 9.81675 19.2125 7.93763 17.6374 6.36257C16.0624 4.78752 14.1832 4 12 4C9.81675 4 7.93763 4.78752 6.36257 6.36257C4.78752 7.93763 4 9.81675 4 12C4 14.1832 4.77972 16.0702 6.33918 17.6608ZM4.9108 4.95775C6.88264 2.98591 9.24568 2 12 2C14.7543 2 17.1095 2.97808 19.0657 4.93427C21.0219 6.89046 22 9.24568 22 12C22 14.7543 21.0219 17.1095 19.0657 19.0657C17.1095 21.0219 14.7543 22 12 22C9.24568 22 6.89046 21.0219 4.93427 19.0657C2.97808 17.1095 2 14.7543 2 12C2 9.24568 2.97026 6.89829 4.9108 4.95775Z" fill="#595454"/>
</svg>
