<svg data-token-name="Email" width="24" height="24" viewBox="0 0 24 24" fill="none" xmlns="http://www.w3.org/2000/svg">
<path fill-rule="evenodd" clip-rule="evenodd" d="M21.4153 4.58047C21.024 4.17349 20.5622 3.97 20.03 3.97H3.97002C3.43782 3.97 2.97606 4.17349 2.58473 4.58047C2.1934 4.98745 1.99774 5.45704 1.99774 5.98924V18.0108C1.99774 18.543 2.1934 19.0126 2.58473 19.4195C2.97606 19.8265 3.43782 20.03 3.97002 20.03H20.03C20.5622 20.03 21.024 19.8265 21.4153 19.4195C21.8066 19.0126 22.0023 18.543 22.0023 18.0108V5.98924C22.0023 5.45704 21.8066 4.98745 21.4153 4.58047ZM20.03 5.98924V8.00848L12 12.9861L3.97002 8.00848V5.98924L12 11.0139L20.03 5.98924Z" fill="#595454"/>
</svg>
