<svg data-token-name="Error" width="24" height="24" viewBox="0 0 24 24" fill="none" xmlns="http://www.w3.org/2000/svg">
<path fill-rule="evenodd" clip-rule="evenodd" d="M17.0235 15.615L13.4085 12L17.0235 8.38498L15.615 6.97653L12 10.5915L8.38498 6.97653L6.97653 8.38498L10.5915 12L6.97653 15.615L8.38498 17.0235L12 13.4085L15.615 17.0235L17.0235 15.615ZM12 2C14.7543 2 17.1095 2.97808 19.0657 4.93427C21.0219 6.89046 22 9.24568 22 12C22 14.7543 21.0219 17.1095 19.0657 19.0657C17.1095 21.0219 14.7543 22 12 22C9.24568 22 6.89046 21.0219 4.93427 19.0657C2.97808 17.1095 2 14.7543 2 12C2 9.24568 2.97808 6.89046 4.93427 4.93427C6.89046 2.97808 9.24568 2 12 2Z" fill="#ED3B38"/>
</svg>
