<svg data-token-name="FireFab" width="24" height="24" viewBox="0 0 24 24" fill="none" xmlns="http://www.w3.org/2000/svg">
<g clip-path="url(#clip0)">
<path d="M20.297 14.1828C20.297 14.1828 19.1381 16.6313 18.1713 15.9404C17.1567 15.2143 18.4048 12.7831 18.1157 10.7922C17.8205 8.76426 16.0442 7.1937 14.7563 6.41889C14.7563 6.41889 15.5935 9.48074 14.1939 9.70222C12.7942 9.9237 10.9189 5.98944 13.0863 2C13.0863 2 9.71481 3.66759 8.93203 6.34685C8.25462 8.66444 9.47406 9.85944 8.75092 10.8717C8.09555 11.7896 6.43981 10.3272 6.47129 7.96852C6.47129 7.96852 4.65462 10.3465 5.43869 12.7759C6.27814 15.3778 6.82443 15.8728 6.40277 16.5874C5.94758 17.3587 4.35555 16.5874 3.75203 14.86C3.75203 14.86 2.60388 21.505 11.0646 22C9.84962 21.4285 8.07703 20.2504 8.32925 18.3135C8.85314 19.5574 10.5202 19.8569 10.7978 18.9093C11.1515 17.7033 8.99203 17.0635 9.82018 14.1315C9.82018 14.1315 11.0598 16.7707 12.3478 15.7194C13.6357 14.6681 12.507 11.7867 12.507 11.7867C12.507 11.7867 14.9313 13.1404 14.588 15.6633C14.3472 17.4226 15.6157 19.2067 16.8815 17.6219C16.7161 19.9696 14.5594 21.3519 13.2148 21.9904C21.5572 21.3978 20.2976 14.1828 20.2976 14.1828" fill="#00446A"/>
</g>
<defs>
<clipPath id="clip0">
<rect width="16.6646" height="20" fill="white" transform="translate(3.70001 2)"/>
</clipPath>
</defs>
</svg>
