<svg data-token-name="G" width="24" height="24" viewBox="0 0 24 24" fill="none" xmlns="http://www.w3.org/2000/svg">
<path fill-rule="evenodd" clip-rule="evenodd" d="M9.07824 11.0116V12.9923C9.07824 12.9923 11.0287 12.9884 11.8254 12.9884C11.3937 14.2703 10.7265 14.9691 9.07824 14.9691C7.41035 14.9691 6.11136 13.6409 6.11136 12C6.11136 10.3591 7.41428 9.03089 9.07824 9.03089C9.96125 9.03089 10.5303 9.33591 11.0522 9.76062C11.4722 9.34749 11.4368 9.28958 12.5004 8.30116C11.5977 7.49421 10.3969 7 9.08217 7C6.27618 7 4 9.23938 4 12C4 14.7606 6.27618 17 9.08217 17C13.2774 17 14.3017 13.4054 13.9603 11.0116C12.9674 11.0116 9.07824 11.0116 9.07824 11.0116ZM18.1748 11.8252V10H16.874V11.8252H15V13.126H16.874V15H18.1748V13.126H20V11.8252H18.1748Z" fill="#595454"/>
</svg>
