<svg data-token-name="Hide" width="24" height="24" viewBox="0 0 24 24" fill="none" xmlns="http://www.w3.org/2000/svg">
<path fill-rule="evenodd" clip-rule="evenodd" d="M7.02407 6.62287C7.01977 6.62571 7.01547 6.62855 7.01118 6.6314L4.72248 4.3427L3.30827 5.75692L5.419 7.86765C3.2575 9.80073 2 12 2 12C2 12 5.99615 19 12 19C13.3301 19 14.5616 18.6565 15.6729 18.1216L18.2632 20.7119L19.6774 19.2977L17.4385 17.0587C17.4426 17.0557 17.4467 17.0527 17.4509 17.0497L15.7305 15.3293C15.7271 15.333 15.7237 15.3368 15.7204 15.3406L14.3027 13.923C14.306 13.9191 14.3092 13.9152 14.3125 13.9113L10.0887 9.68753C10.0848 9.69076 10.0809 9.69401 10.077 9.69726L8.65943 8.27965C8.66319 8.27627 8.66696 8.2729 8.67073 8.26953L7.02407 6.62287ZM12.239 9.00939L14.9906 11.761C14.875 10.2947 13.7053 9.12496 12.239 9.00939ZM16.7611 13.5315C16.9162 13.0488 17 12.5342 17 12C17 9.23858 14.7614 7 12 7C11.4658 7 10.9512 7.08378 10.4685 7.2389L8.86818 5.63855C9.83419 5.24304 10.8825 5 12 5C17.9975 5 22 12 22 12C22 12 20.9002 13.9265 18.9878 15.7581L16.7611 13.5315ZM7 12C7 11.2526 7.164 10.5434 7.45799 9.90664L9.04291 11.4916C9.0147 11.6568 9 11.8267 9 12C9 13.6569 10.3431 15 12 15C12.1733 15 12.3432 14.9853 12.5084 14.9571L14.0934 16.542C13.4566 16.836 12.7474 17 12 17C9.23858 17 7 14.7614 7 12Z" fill="#595454"/>
</svg>
