<svg data-token-name="HVAC" width="24" height="24" viewBox="0 0 24 24" fill="none" xmlns="http://www.w3.org/2000/svg">
<g clip-path="url(#clip0)">
<path d="M15.5266 8.9363C15.5266 8.9363 15.8809 10.3735 16.3907 10.305C17.6674 10.1339 17.1535 6.94037 17.1535 6.94037C18.3237 7.645 19.6874 9.45241 19.9555 11.2959C20.2183 13.1059 19.0837 15.3145 20.0061 15.9748C20.8844 16.6033 21.9383 14.3776 21.9383 14.3776C21.9383 14.3776 23.0833 20.9363 15.5 21.4743C16.7222 20.8935 18.5307 20.0404 18.6711 18.0213C17.597 19.3845 16.5229 17.8496 16.7266 16.3374C17.0185 14.1687 14.9629 13.0039 14.9629 13.0039C14.9629 13.0039 15.9198 15.4807 14.8274 16.385C13.735 17.2893 12.8644 15.4807 12.8644 15.4807C12.1607 18.0026 13.8129 18.0919 13.5137 19.1289C13.2783 19.9437 11.8637 19.6861 11.4199 18.6169C11.2051 20.2815 12.4427 20.9637 13.547 21.4822C11.4325 21.3583 9.97013 20.9976 8.9729 20.2704L15.5266 8.9363Z" fill="#00446A"/>
<path d="M15.0269 4.44333L15.7097 5.01037L7.35506 19.66L6.36969 19.3957L15.0269 4.44333Z" fill="#00446A"/>
<path d="M8.97333 12.6969L6.13185 14.3074V16.39L5.24611 16.985H4.65556V14.9024L3.17352 16.1109L2 14.6804L3.47444 13.7119L2 12.5346L3.17889 11.6293L5.24611 12.8193L7.90352 11.3315L5.24611 9.54611L3.17352 10.8654L2 9.91185L3.47444 8.95111L2 7.7663L3.17352 6.57407L4.65556 7.7613V5.67815H6.13185V8.3563L8.49407 9.84389V6.86852L6.45907 5.38204L6.92852 4.18981L8.49407 5.38037V3H9.97074V5.38037L10.2143 5.14352L11.153 4.18981L11.7424 4.19037V5.67815L9.97074 6.86852V11.0557L8.97333 12.6969Z" fill="#00446A"/>
</g>
<defs>
<clipPath id="clip0">
<rect width="20" height="18.483" fill="white" transform="translate(2 3)"/>
</clipPath>
</defs>
</svg>
