<svg data-token-name="InCart" width="24" height="24" viewBox="0 0 24 24" fill="none" xmlns="http://www.w3.org/2000/svg">
<path fill-rule="evenodd" clip-rule="evenodd" d="M4.93427 19.0657C6.89046 21.0219 9.24568 22 12 22C14.7543 22 17.1095 21.0219 19.0657 19.0657C21.0219 17.1095 22 14.7543 22 12C22 9.24568 21.0219 6.89046 19.0657 4.93427C17.1095 2.97808 14.7543 2 12 2C9.24568 2 6.89046 2.97808 4.93427 4.93427C2.97808 6.89046 2 9.24568 2 12C2 14.7543 2.97808 17.1095 4.93427 19.0657ZM14.6754 15.6501C14.3879 15.6501 14.1343 15.76 13.9144 15.9798C13.6946 16.1997 13.5847 16.4534 13.5847 16.7408C13.5847 17.0283 13.6946 17.2778 13.9144 17.4892C14.1343 17.7006 14.3879 17.8062 14.6754 17.8062C14.9629 17.8062 15.2124 17.7006 15.4238 17.4892C15.6351 17.2778 15.7408 17.0283 15.7408 16.7408C15.7408 16.4534 15.6351 16.1997 15.4238 15.9798C15.2124 15.76 14.9629 15.6501 14.6754 15.6501ZM7.77567 7H6V8.0654H7.09077L9.04401 12.1748L8.30838 13.5193C8.22382 13.6884 8.18154 13.8575 8.18154 14.0266C8.18154 14.3141 8.28724 14.5678 8.49863 14.7876C8.71002 15.0074 8.95946 15.1174 9.24695 15.1174H15.7408V14.0266H9.47525C9.39069 14.0266 9.34842 13.9843 9.34842 13.8998L9.37378 13.8237L9.85575 12.9358H13.8891C14.3119 12.9358 14.6247 12.7498 14.8276 12.3778L16.7555 8.87714C16.8062 8.79259 16.8316 8.70803 16.8316 8.62347C16.8316 8.47127 16.7809 8.34021 16.6794 8.23029C16.5779 8.12037 16.4511 8.0654 16.2989 8.0654H8.28301L7.77567 7ZM9.24695 15.6501C8.95946 15.6501 8.70579 15.76 8.48594 15.9798C8.28301 16.1997 8.18154 16.4534 8.18154 16.7408C8.18154 17.0283 8.28724 17.2778 8.49863 17.4892C8.71002 17.7006 8.95946 17.8062 9.24695 17.8062C9.53444 17.8062 9.78811 17.7006 10.008 17.4892C10.2278 17.2778 10.3377 17.0283 10.3377 16.7408C10.3377 16.4534 10.2278 16.1997 10.008 15.9798C9.78811 15.76 9.53444 15.6501 9.24695 15.6501Z" fill="#00446A"/>
</svg>
