<svg data-token-name="Industrial" width="24" height="24" viewBox="0 0 24 24" fill="none" xmlns="http://www.w3.org/2000/svg">
<g clip-path="url(#clip0)">
<path d="M3.54999 21.7318C3.69984 21.7318 3.84969 21.727 3.99954 21.7318C4.05565 21.7318 4.07139 21.7133 4.07276 21.6585C4.08165 21.1912 4.0926 20.7232 4.10286 20.2558C4.11928 19.526 4.13548 18.7961 4.15144 18.0662C4.16194 17.5804 4.17266 17.0948 4.1836 16.6094C4.19911 15.8841 4.21531 15.1591 4.23219 14.4342C4.24268 13.9511 4.2534 13.4678 4.26435 12.9843C4.27986 12.259 4.29582 11.5339 4.31224 10.809L4.32867 10.1309C4.32867 10.109 4.32867 10.0871 4.33346 10.0625L4.40872 10.0584C5.04713 10.0584 5.68485 10.0584 6.32463 10.0584C6.38758 10.0584 6.40811 10.0748 6.41153 10.1398C6.43411 10.6339 6.46216 11.1272 6.48748 11.6212C6.50732 12.0037 6.52512 12.3856 6.54564 12.7681C6.57028 13.2347 6.59559 13.7016 6.62159 14.1687C6.63596 14.4253 6.64896 14.6826 6.66265 14.9392C6.66265 14.9529 6.66607 14.9659 6.66812 14.983H6.92403C7.01025 14.2955 7.09669 13.6067 7.18337 12.9165H8.47728C8.56282 13.6008 8.64903 14.285 8.73662 14.9884L12.6266 12.6545V14.9884L16.2531 12.6572V14.9871L19.8838 12.651V21.7256H20.3976V21.9842H3.65057C3.61704 21.9842 3.58215 21.9842 3.54999 21.9842V21.7318ZM10.8072 17.8315V16.5458H8.22274V17.8343L10.8072 17.8315ZM14.6985 16.5417H12.1113V17.8336H14.6985V16.5417ZM18.5898 16.5417H16.0041V17.8295H18.5898V16.5417ZM10.8065 19.1391H8.2248V20.4255H10.8065V19.1391ZM14.6985 19.1391H12.1127V20.4269H14.6985V19.1391ZM16.0027 20.4269H18.5885V19.1384H16.0027V20.4269Z" fill="#00446A"/>
<path d="M5.62052 6.49418C5.60479 6.40659 5.58563 6.33269 5.58015 6.25811C5.5678 6.13047 5.58851 6.0018 5.64028 5.88448C5.69205 5.76716 5.77314 5.66514 5.87575 5.58823C5.89934 5.56704 5.91401 5.5377 5.91681 5.50612C5.92464 5.25262 6.02063 5.00978 6.18825 4.81944C6.35586 4.62909 6.5846 4.50316 6.83507 4.46332C6.99288 4.43424 7.15527 4.44203 7.30957 4.48606C7.46387 4.5301 7.60591 4.60919 7.7246 4.71717C7.74261 4.73714 7.7661 4.75135 7.79215 4.75805C7.81819 4.76474 7.84562 4.76361 7.87103 4.75481C7.96135 4.73086 8.05646 4.72812 8.14473 4.7117C8.17179 4.70824 8.19639 4.69422 8.21316 4.6727C8.39654 4.36547 8.66203 4.17251 9.01784 4.13214C9.13913 4.11831 9.25352 4.06851 9.34628 3.98913C9.44329 3.92626 9.5451 3.87112 9.65077 3.82423C9.67745 3.8127 9.69941 3.79242 9.71303 3.76675C9.8581 3.34867 10.1427 3.09139 10.5786 3.00449C10.586 3.00181 10.5931 2.99837 10.5998 2.99423C10.5688 2.8854 10.562 2.77109 10.58 2.65936C10.598 2.54763 10.6402 2.44121 10.7038 2.34761C10.8032 2.19927 10.9522 2.0911 11.124 2.04243C11.3183 1.98824 11.526 2.01179 11.7033 2.10808C11.8806 2.20437 12.0134 2.36586 12.0737 2.55836C12.4398 2.47351 12.7333 2.58299 12.9475 2.88475C13.0583 2.8608 13.1658 2.83001 13.2753 2.81632C13.5049 2.79124 13.7365 2.84061 13.936 2.95715C14.1354 3.0737 14.2922 3.25125 14.3831 3.46362C14.3899 3.48824 14.4049 3.50983 14.4254 3.52496C14.446 3.5401 14.4711 3.54789 14.4966 3.5471C14.7568 3.57458 14.9985 3.69467 15.1775 3.88547C15.3565 4.07627 15.461 4.32506 15.4718 4.58646C15.4827 4.84787 15.3992 5.10447 15.2367 5.30947C15.0741 5.51447 14.8433 5.6542 14.5863 5.70318C14.5586 5.70999 14.5331 5.7239 14.5124 5.74355C14.3089 5.93331 14.0409 6.03849 13.7627 6.03773C13.4844 6.03697 13.217 5.93032 13.0146 5.73945C12.989 5.71981 12.9593 5.70645 12.9277 5.70044C12.8784 5.68813 12.8271 5.68197 12.7696 5.67171C12.7504 6.17942 12.5253 6.55439 12.0457 6.73024C11.566 6.9061 11.152 6.76103 10.814 6.38812C10.3959 6.87804 9.90052 6.97384 9.32301 6.68371C9.21627 7.08674 8.97268 7.37412 8.56623 7.49455C8.15978 7.61498 7.8026 7.51576 7.48785 7.23317C7.30901 7.41534 7.07145 7.5283 6.81728 7.55203C6.56348 7.57782 6.30863 7.51417 6.09677 7.37207C6.06759 7.49784 6.00742 7.6143 5.92173 7.71087C5.83604 7.80743 5.72756 7.88103 5.60616 7.92495C5.43011 7.99076 5.23561 7.98709 5.06218 7.91468C4.8904 7.84549 4.74966 7.71619 4.66619 7.55089C4.58272 7.38558 4.56222 7.19556 4.60852 7.01626C4.63407 6.91264 4.68155 6.81571 4.74778 6.73202C4.814 6.64832 4.89741 6.57982 4.99238 6.53113C5.08848 6.48078 5.19418 6.45145 5.30248 6.44508C5.41078 6.43871 5.51919 6.45544 5.62052 6.49418Z" fill="#00446A"/>
<path d="M9.14099 10.7304C8.8755 10.9356 8.60522 10.95 8.31989 10.7632C8.29617 10.8387 8.25385 10.9071 8.19681 10.9619C8.13978 11.0168 8.06987 11.0565 7.9935 11.0773C7.89296 11.1039 7.78615 11.093 7.69311 11.0465C7.59433 10.9967 7.51647 10.9134 7.47347 10.8115C7.43047 10.7096 7.42514 10.5957 7.45841 10.4902C7.47611 10.4297 7.50633 10.3737 7.54711 10.3257C7.58789 10.2777 7.63831 10.2388 7.69511 10.2116C7.7519 10.1843 7.81379 10.1694 7.87675 10.1676C7.93971 10.1659 8.00234 10.1774 8.06055 10.2014C8.06055 10.1248 8.05508 10.0543 8.06055 9.98452C8.06625 9.92636 8.08412 9.87004 8.11301 9.81924C8.14189 9.76843 8.18113 9.72426 8.2282 9.68961C8.24515 9.67765 8.2593 9.66216 8.2697 9.64421C8.28009 9.62625 8.28648 9.60626 8.28841 9.5856C8.30513 9.45151 8.36406 9.3262 8.45668 9.2278C8.5493 9.1294 8.67081 9.063 8.80365 9.0382C8.90488 9.01649 9.01 9.02134 9.1088 9.05228C9.20759 9.08321 9.29671 9.13918 9.36748 9.21474C9.37939 9.22671 9.39398 9.23568 9.41004 9.24091C9.4261 9.24615 9.44317 9.24749 9.45985 9.24485C9.51828 9.24587 9.57609 9.23278 9.62839 9.20669C9.68068 9.18061 9.72591 9.14229 9.76024 9.095C9.86835 8.95815 10.0305 8.91162 10.2036 8.90614C10.2376 8.9025 10.2704 8.89127 10.2994 8.8733C10.3368 8.84505 10.3766 8.82031 10.4185 8.7994C10.4671 8.78427 10.5117 8.75865 10.5493 8.72436C10.5869 8.69008 10.6165 8.64795 10.6361 8.60097C10.6785 8.52153 10.7388 8.453 10.8122 8.40077C10.8855 8.34853 10.97 8.314 11.0589 8.2999C11.0781 8.29647 11.098 8.29168 11.1226 8.28553C11.1068 8.21209 11.1087 8.13597 11.1281 8.06341C11.1475 7.99085 11.1838 7.92393 11.2341 7.86813C11.2988 7.79218 11.3887 7.74213 11.4873 7.72718C11.5979 7.70796 11.7117 7.73108 11.806 7.79194C11.9003 7.8528 11.9683 7.94693 11.9964 8.05562C12.0971 8.0647 12.1965 8.08513 12.2927 8.11652C12.3798 8.17037 12.4604 8.23421 12.5328 8.30674C12.6422 8.27243 12.7589 8.26888 12.8702 8.29647C12.9717 8.32102 13.0657 8.37028 13.1436 8.43987C13.2216 8.50946 13.2811 8.59724 13.317 8.69539C13.3227 8.71606 13.3345 8.73454 13.3509 8.74844C13.3672 8.76235 13.3873 8.77104 13.4087 8.7734C13.5583 8.80695 13.6916 8.89132 13.786 9.01215C13.8804 9.13297 13.9301 9.28278 13.9264 9.43606C13.9228 9.58935 13.8661 9.73664 13.7661 9.85286C13.6661 9.96908 13.5289 10.047 13.3779 10.0735C13.3528 10.0786 13.3294 10.0896 13.3095 10.1056C13.1859 10.2067 13.0286 10.2573 12.8693 10.2471C12.71 10.237 12.5604 10.1669 12.4507 10.0509C12.4045 10.0193 12.3541 9.99438 12.3009 9.977C12.2653 10.2986 12.1189 10.5244 11.8171 10.6045C11.5352 10.6811 11.3039 10.5791 11.1253 10.3472C10.8619 10.6209 10.569 10.6674 10.2433 10.471C10.2127 10.5828 10.1525 10.6843 10.0691 10.7648C9.98566 10.8453 9.88207 10.9018 9.76923 10.9283C9.65639 10.9549 9.53848 10.9505 9.42791 10.9156C9.31735 10.8808 9.21823 10.8168 9.14099 10.7304Z" fill="#00446A"/>
<path d="M4.33344 9.78814V9.01835C4.35738 9.01835 4.3786 9.01492 4.40186 9.01492C5.04369 9.01492 5.68552 9.01492 6.32735 9.01492C6.39098 9.01492 6.40672 9.03408 6.40535 9.0943C6.40535 9.30436 6.40535 9.51443 6.40535 9.72518C6.40535 9.77513 6.39304 9.79361 6.33693 9.79361C5.68826 9.79361 5.03685 9.79361 4.39091 9.79361C4.37381 9.79293 4.35602 9.79019 4.33344 9.78814Z" fill="#00446A"/>
<path d="M8.47249 12.6463H7.1861V12.1345H8.47249V12.6463Z" fill="#00446A"/>
<path d="M6.39785 8.50381V8.75083H4.33551V8.50381H6.39785Z" fill="#00446A"/>
<path d="M7.18335 11.8655V11.6151H8.47248V11.8655H7.18335Z" fill="#00446A"/>
</g>
<defs>
<clipPath id="clip0">
<rect width="16.8695" height="20" fill="white" transform="translate(3.54999 2)"/>
</clipPath>
</defs>
</svg>
