<svg data-token-name="Instagram" width="24" height="24" viewBox="0 0 24 24" fill="none" xmlns="http://www.w3.org/2000/svg">
<path d="M17 8C17 8.55228 16.5523 9 16 9C15.4477 9 15 8.55228 15 8C15 7.44772 15.4477 7 16 7C16.5523 7 17 7.44772 17 8Z" fill="#595454"/>
<path fill-rule="evenodd" clip-rule="evenodd" d="M8 12C8 9.79248 9.79248 8 12 8C14.2075 8 16 9.79248 16 12C16 14.2075 14.2075 16 12 16C9.79248 16 8 14.2075 8 12ZM12 14C10.8981 14 10 13.1065 10 12C10 10.8981 10.8935 10 12 10C13.1065 10 14 10.8935 14 12C14 13.1019 13.1019 14 12 14Z" fill="#595454"/>
<path fill-rule="evenodd" clip-rule="evenodd" d="M19.5796 6.75734C19.3756 6.23184 19.1036 5.78671 18.6584 5.34158C18.2133 4.89645 17.7682 4.62442 17.2427 4.4204C16.7357 4.22257 16.1484 4.08655 15.3014 4.04946L15.287 4.04883C14.4451 4.01223 14.1639 4 12 4C9.8238 4 9.55178 4.00618 8.69861 4.04946C7.84544 4.08655 7.2643 4.22257 6.75734 4.4204C6.23184 4.62442 5.78671 4.89645 5.34158 5.34158C4.89645 5.78671 4.62442 6.23184 4.4204 6.75734C4.22257 7.2643 4.08655 7.85162 4.04946 8.69861L4.04883 8.71299C4.01223 9.55491 4 9.83607 4 12C4 14.1762 4.00618 14.4482 4.04946 15.3014C4.08655 16.1546 4.22257 16.7357 4.4204 17.2427C4.62442 17.7682 4.89645 18.2133 5.34158 18.6584C5.78671 19.1036 6.23184 19.3756 6.75734 19.5796C7.2643 19.7774 7.85162 19.9134 8.69861 19.9505L8.713 19.9512C9.55491 19.9878 9.83609 20 12 20C14.1762 20 14.4482 19.9938 15.3014 19.9505C16.1546 19.9134 16.7357 19.7774 17.2427 19.5796C17.7682 19.3756 18.2133 19.1036 18.6584 18.6584C19.1036 18.2133 19.3756 17.7682 19.5796 17.2427C19.7774 16.7357 19.9134 16.1484 19.9505 15.3014L19.9512 15.287C19.9878 14.4451 20 14.1639 20 12C20 9.8238 19.9938 9.55178 19.9505 8.69861C19.9134 7.84544 19.7774 7.2643 19.5796 6.75734ZM17.9548 14.9548C17.9209 15.6667 17.8023 16.0565 17.7006 16.3107C17.5706 16.6497 17.4068 16.8983 17.1525 17.1525C16.8983 17.4068 16.6554 17.565 16.3107 17.7006C16.0508 17.8023 15.6667 17.9209 14.9548 17.9548L14.918 17.9564C14.1731 17.9891 13.9235 18 12 18C10.0452 18 9.81356 17.9944 9.0452 17.9548C8.33333 17.9209 7.9435 17.8023 7.68927 17.7006C7.35028 17.5706 7.1017 17.4068 6.84746 17.1525C6.59322 16.8983 6.43503 16.6554 6.29944 16.3107C6.19774 16.0508 6.0791 15.6667 6.0452 14.9548L6.04386 14.9242C6.011 14.1743 6 13.9233 6 12C6 10.0508 6.00565 9.81356 6.0452 9.0452C6.0791 8.33333 6.19774 7.9435 6.29944 7.68927C6.42938 7.35028 6.59322 7.1017 6.84746 6.84746C7.1017 6.59322 7.34463 6.43503 7.68927 6.29944C7.94915 6.19774 8.33333 6.0791 9.0452 6.0452L9.07577 6.04386C9.82567 6.011 10.0767 6 12 6C13.9492 6 14.1864 6.00565 14.9548 6.0452C15.6667 6.0791 16.0565 6.19774 16.3107 6.29944C16.6497 6.42938 16.8983 6.59322 17.1525 6.84746C17.4068 7.1017 17.565 7.34463 17.7006 7.68927C17.8023 7.94915 17.9209 8.33333 17.9548 9.0452L17.9561 9.07576C17.989 9.82565 18 10.0768 18 12C18 13.9306 17.9889 14.1818 17.9558 14.933L17.9548 14.9548Z" fill="#595454"/>
</svg>
