<svg data-token-name="JobBoard" width="24" height="24" viewBox="0 0 24 24" fill="none" xmlns="http://www.w3.org/2000/svg">
<path fill-rule="evenodd" clip-rule="evenodd" d="M16.8571 2.85714C16.8571 2.38376 16.4734 2 16 2C15.5266 2 15.1428 2.38376 15.1428 2.85714V5.71429C15.1428 6.18767 15.5266 6.57143 16 6.57143C16.4734 6.57143 16.8571 6.18767 16.8571 5.71429V2.85714ZM13.4285 4.28571H14.5714V5.71429C14.5714 6.50326 15.211 7.14286 16 7.14286C16.789 7.14286 17.4285 6.50326 17.4285 5.71429V4.28571H18C18.6312 4.28571 19.1428 4.79739 19.1428 5.42857V20.8571C19.1428 21.4883 18.6312 22 18 22H5.99997C5.36879 22 4.85712 21.4883 4.85712 20.8571V5.42857C4.85712 4.79739 5.36879 4.28571 5.99997 4.28571H6.5714V5.71429C6.5714 6.50326 7.211 7.14286 7.99997 7.14286C8.78895 7.14286 9.42855 6.50326 9.42855 5.71429V4.28571H10.5714V5.71429C10.5714 6.50326 11.211 7.14286 12 7.14286C12.789 7.14286 13.4285 6.50326 13.4285 5.71429V4.28571ZM7.99997 2C8.47336 2 8.85712 2.38376 8.85712 2.85714V5.71429C8.85712 6.18767 8.47336 6.57143 7.99997 6.57143C7.52659 6.57143 7.14283 6.18767 7.14283 5.71429V2.85714C7.14283 2.38376 7.52659 2 7.99997 2ZM12.8571 2.85714C12.8571 2.38376 12.4734 2 12 2C11.5266 2 11.1428 2.38376 11.1428 2.85714V5.71429C11.1428 6.18767 11.5266 6.57143 12 6.57143C12.4734 6.57143 12.8571 6.18767 12.8571 5.71429V2.85714ZM8.00141 12.85L8.00055 12.8503C7.98211 11.7878 8.4038 10.765 9.1657 10.0243C9.90628 9.26167 10.9294 8.83942 11.9923 8.85772C13.0547 8.83928 14.0775 9.26097 14.8183 10.0229C15.5802 10.7636 16.0019 11.7864 15.9834 12.8489C15.9623 13.5028 15.8216 14.1473 15.5683 14.7506C15.2983 15.4507 14.9619 16.1234 14.5637 16.7594C14.1707 17.3861 13.7824 17.9713 13.3986 18.5152C13.0147 19.059 12.6889 19.492 12.4211 19.8143L11.9926 20.2697C11.8855 20.145 11.7427 19.9798 11.564 19.7743C11.3853 19.5688 11.0639 19.158 10.5997 18.542C10.1621 17.9657 9.75528 17.3667 9.38084 16.7474C9.00908 16.1191 8.691 15.4604 8.42998 14.7786C8.17007 14.1674 8.02479 13.5137 8.00141 12.85ZM10.988 13.8543C10.7168 13.5913 10.5665 13.2278 10.5728 12.85C10.5722 12.4733 10.7216 12.1118 10.988 11.8454C11.2544 11.5791 11.6158 11.4297 11.9926 11.4303C12.6349 11.4308 13.1969 11.8625 13.363 12.4831C13.529 13.1036 13.2576 13.7583 12.7013 14.0795C12.145 14.4007 11.4424 14.3083 10.988 13.8543Z" fill="#595454"/>
</svg>
