<svg data-token-name="LeadFree" width="24" height="24" viewBox="0 0 24 24" fill="none" xmlns="http://www.w3.org/2000/svg">
<path fill-rule="evenodd" clip-rule="evenodd" d="M2 14.2384H5.40354V10.7001H7.99831C10.6268 10.7001 12.0421 8.94777 12.0421 6.85847C12.0421 4.75232 10.6268 3 7.99831 3H2V14.2384ZM8.58804 6.85847C8.58804 7.44819 8.13311 7.73462 7.56024 7.73462H5.40354V5.96546H7.56024C8.13311 5.96546 8.58804 6.2519 8.58804 6.85847ZM17.3833 11.7616C16.9789 11.7616 16.4061 11.5762 16.1196 11.2224V9.13311C16.4061 8.77928 16.9789 8.57709 17.3833 8.57709C18.2089 8.57709 18.8997 9.14996 18.8997 10.1609C18.8997 11.1887 18.2089 11.7616 17.3833 11.7616ZM13.0868 14.2384H16.1196V13.3791C16.8104 14.1542 17.5855 14.4406 18.4111 14.4406C20.3825 14.4406 22 12.9579 22 10.1609C22 7.46504 20.4162 5.89806 18.4111 5.89806C17.5855 5.89806 16.7599 6.1845 16.1196 6.95956V3H13.0868V14.2384ZM2 20.8562H3.4707V19.0433H5.63305V17.7619H3.4707V17.2814H5.68402V16H2V20.8562ZM11.5668 20.8562H9.89225L9.22242 19.3273H8.69094V20.8562H7.22024V16H9.81216C10.9479 16 11.5595 16.7572 11.5595 17.6673C11.5595 18.5046 11.0717 18.9487 10.6858 19.138L11.5668 20.8562ZM10.067 17.66C10.067 17.9294 9.834 18.0459 9.58646 18.0459H8.69094V17.2814H9.58646C9.834 17.2814 10.067 17.3979 10.067 17.66ZM16.7506 20.8562H13.0666V16H16.7506V17.2814H14.5373V17.7619H16.6997V19.0433H14.5373V19.5748H16.7506V20.8562ZM18.316 20.8562H22V19.5748H19.7867V19.0433H21.949V17.7619H19.7867V17.2814H22V16H18.316V20.8562Z" fill="#1ABC81"/>
</svg>
