<svg data-token-name="LeadWarning" width="24" height="24" viewBox="0 0 24 24" fill="none" xmlns="http://www.w3.org/2000/svg">
<path fill-rule="evenodd" clip-rule="evenodd" d="M5.40354 14.2384H2V3H7.99831C10.6268 3 12.0421 4.75232 12.0421 6.85847C12.0421 8.94777 10.6268 10.7001 7.99831 10.7001H5.40354V14.2384ZM7.56024 7.73462C8.13311 7.73462 8.58804 7.44819 8.58804 6.85847C8.58804 6.2519 8.13311 5.96546 7.56024 5.96546H5.40354V7.73462H7.56024ZM16.1196 11.2224C16.4061 11.5762 16.9789 11.7616 17.3833 11.7616C18.2089 11.7616 18.8997 11.1887 18.8997 10.1609C18.8997 9.14996 18.2089 8.57709 17.3833 8.57709C16.9789 8.57709 16.4061 8.77928 16.1196 9.13311V11.2224ZM16.1196 14.2384H13.0868V3H16.1196V6.95956C16.7599 6.1845 17.5855 5.89806 18.4111 5.89806C20.4162 5.89806 22 7.46504 22 10.1609C22 12.9579 20.3825 14.4406 18.4111 14.4406C17.5855 14.4406 16.8104 14.1542 16.1196 13.3791V14.2384ZM5.15863 20.6303H2V16H3.40229V19.4085H5.15863V20.6303ZM6.58868 20.6303H10.1014V19.4085H7.99098V18.9018H10.0528V17.68H7.99098V17.2218H10.1014V16H6.58868V20.6303ZM16.2728 20.6303H14.6831L14.5165 20.0889H12.8504L12.6838 20.6303H11.0941L12.8018 16H14.5651L16.2728 20.6303ZM13.6834 17.3745L14.1416 18.8671H13.2253L13.6834 17.3745ZM19.4662 20.6303H17.3905V16H19.4592C20.917 16 22 16.833 22 18.3117C22 19.7903 20.917 20.6303 19.4662 20.6303ZM20.5769 18.3117C20.5769 18.8948 20.1604 19.4085 19.4592 19.4085H18.7928V17.2218H19.4662C20.2159 17.2218 20.5769 17.6869 20.5769 18.3117Z" fill="#FF9D35"/>
</svg>
