<svg data-token-name="Linkedin" width="24" height="24" viewBox="0 0 24 24" fill="none" xmlns="http://www.w3.org/2000/svg">
<path fill-rule="evenodd" clip-rule="evenodd" d="M9.23593 9.34715H7.16191V16.0267H9.23593V9.34715ZM9.40555 7.23132C9.40555 6.56723 8.86584 6.02669 8.20278 6.02669C7.53585 6.02669 7 6.56723 7 7.23132C7 7.89541 7.53585 8.43595 8.20278 8.43595C8.86584 8.43595 9.40555 7.89541 9.40555 7.23132ZM12.5243 9.34715H10.5428V16.0267H12.613V12.7217C12.613 11.8529 12.7749 11.0074 13.8543 11.0074C14.9183 11.0074 14.9298 12.0035 14.9298 12.7796V16.0267H17V12.3665C17 10.5672 16.6106 9.18499 14.5135 9.18499C13.5035 9.18499 12.8288 9.73711 12.5513 10.2622H12.5243V9.34715Z" fill="#595454"/>
</svg>
