<svg data-token-name="MasterCard" width="24" height="16" viewBox="0 0 24 16" fill="none" xmlns="http://www.w3.org/2000/svg">
<path d="M15.1664 2.7655H8.83528V13.106H15.1664V2.7655Z" fill="#FF5F00"/>
<path d="M9.48746 7.93669C9.48668 6.94099 9.7124 5.95816 10.1475 5.06257C10.5827 4.16698 11.2158 3.38211 11.9991 2.76735C11.029 2.00495 9.86396 1.53087 8.63717 1.39927C7.41038 1.26767 6.17131 1.48387 5.06158 2.02316C3.95186 2.56246 3.01624 3.40308 2.36166 4.44896C1.70709 5.49484 1.35996 6.70377 1.35996 7.9376C1.35996 9.17143 1.70709 10.3804 2.36166 11.4262C3.01624 12.4721 3.95186 13.3127 5.06158 13.852C6.17131 14.3913 7.41038 14.6075 8.63717 14.4759C9.86396 14.3443 11.029 13.8703 11.9991 13.1079C11.2156 12.4929 10.5823 11.7077 10.1471 10.8118C9.71199 9.91589 9.4864 8.9327 9.48746 7.93669Z" fill="#EB001B"/>
<path d="M22.0108 12.0119V11.8H22.1021V11.7562H21.8847V11.8H21.9706V12.0119H22.0108ZM22.4327 12.0119V11.7562H22.3669L22.2902 11.9388L22.2135 11.7562H22.1478V12.0119H22.1952V11.8183L22.2665 11.9845H22.3158L22.387 11.8183V12.0119H22.4327Z" fill="#F79E1B"/>
<path d="M22.6392 7.93671C22.6392 9.17063 22.292 10.3796 21.6373 11.4256C20.9826 12.4715 20.0468 13.3121 18.937 13.8513C17.8271 14.3905 16.5879 14.6066 15.3611 14.4748C14.1342 14.343 12.9692 13.8687 11.9991 13.1061C12.7821 12.4907 13.4151 11.7057 13.8503 10.81C14.2856 9.91438 14.5117 8.93159 14.5117 7.9358C14.5117 6.94 14.2856 5.95721 13.8503 5.06158C13.4151 4.16594 12.7821 3.38085 11.9991 2.76554C12.9692 2.00291 14.1342 1.52859 15.3611 1.39681C16.5879 1.26502 17.8271 1.48108 18.937 2.0203C20.0468 2.55951 20.9826 3.40012 21.6373 4.44604C22.292 5.49195 22.6392 6.70097 22.6392 7.93489V7.93671Z" fill="#F79E1B"/>
</svg>
