<svg data-token-name="Message" width="24" height="24" viewBox="0 0 24 24" fill="none" xmlns="http://www.w3.org/2000/svg">
<path fill-rule="evenodd" clip-rule="evenodd" d="M4.93427 19.0657C6.89046 21.0219 9.24568 22 12 22C14.7543 22 17.1095 21.0219 19.0657 19.0657C21.0219 17.1095 22 14.7543 22 12C22 9.24568 21.0219 6.89046 19.0657 4.93427C17.1095 2.97808 14.7543 2 12 2C9.24568 2 6.89046 2.97808 4.93427 4.93427C2.97808 6.89046 2 9.24568 2 12C2 14.7543 2.97808 17.1095 4.93427 19.0657ZM16 8C16.5523 8 17 8.44772 17 9V15C17 15.5523 16.5523 16 16 16H9.5L7 18L7.00134 8.99985C7.00142 8.44762 7.44912 8 8.00134 8H16Z" fill="#595454"/>
</svg>
