<svg data-token-name="MyList" width="24" height="24" viewBox="0 0 24 24" fill="none" xmlns="http://www.w3.org/2000/svg">
<path fill-rule="evenodd" clip-rule="evenodd" d="M4.93427 19.0657C6.89046 21.0219 9.24568 22 12 22C14.7543 22 17.1095 21.0219 19.0657 19.0657C21.0219 17.1095 22 14.7543 22 12C22 9.24568 21.0219 6.89046 19.0657 4.93427C17.1095 2.97808 14.7543 2 12 2C9.24568 2 6.89046 2.97808 4.93427 4.93427C2.97808 6.89046 2 9.24568 2 12C2 14.7543 2.97808 17.1095 4.93427 19.0657ZM13.4286 10.4762H6V11.7143H13.4286V10.4762ZM13.4286 8H6V9.2381H13.4286V8ZM6 14.1905H10.9524V12.9524H6V14.1905ZM19 12.3333L18.0715 11.4048L14.6729 14.8095L12.8096 12.9524L11.881 13.881L14.6729 16.6667L19 12.3333Z" fill="#00446A"/>
</svg>
