<svg data-token-name="Notifications" width="24" height="24" viewBox="0 0 24 24" fill="none" xmlns="http://www.w3.org/2000/svg">
<path fill-rule="evenodd" clip-rule="evenodd" d="M18.1538 15.8462L20.2211 17.9135V18.9231H3.77884V17.9135L5.84615 15.8462V10.75C5.84615 9.14743 6.2548 7.75321 7.07211 6.56731C7.88942 5.3814 9.01922 4.61218 10.4615 4.25962V3.53846C10.4615 3.12179 10.6058 2.76122 10.8942 2.45673C11.1827 2.15224 11.5513 2 12 2C12.4487 2 12.8173 2.15224 13.1058 2.45673C13.3942 2.76122 13.5385 3.12179 13.5385 3.53846V4.25962C14.9808 4.61218 16.1106 5.3814 16.9279 6.56731C17.7452 7.75321 18.1538 9.14743 18.1538 10.75V15.8462ZM12 22C11.4231 22 10.9343 21.7997 10.5336 21.399C10.133 20.9984 9.93269 20.5256 9.93269 19.9808H14.0673C14.0673 20.5256 13.859 20.9984 13.4423 21.399C13.0256 21.7997 12.5449 22 12 22Z" fill="#595454"/>
</svg>
