<svg data-token-name="Pin" width="24" height="24" viewBox="0 0 24 24" fill="none" xmlns="http://www.w3.org/2000/svg">
<path fill-rule="evenodd" clip-rule="evenodd" d="M12 11.5084C12.6886 11.5084 13.2754 11.2658 13.7606 10.7807C14.2457 10.2955 14.4883 9.70868 14.4883 9.0201C14.4883 8.33152 14.2457 7.74467 13.7606 7.25954C13.2754 6.7744 12.6886 6.53184 12 6.53184C11.3114 6.53184 10.7246 6.7744 10.2394 7.25954C9.75431 7.74467 9.51174 8.33152 9.51174 9.0201C9.51174 9.70868 9.75431 10.2955 10.2394 10.7807C10.7246 11.2658 11.3114 11.5084 12 11.5084ZM12 2.0248C13.9405 2.0248 15.5915 2.70554 16.9531 4.06705C18.3146 5.42856 18.9953 7.07956 18.9953 9.0201C18.9953 9.99037 18.7527 11.1015 18.2676 12.3534C17.7825 13.6054 17.1956 14.7791 16.507 15.8746C15.8185 16.97 15.1377 17.9951 14.4648 18.9497C13.7919 19.9043 13.2207 20.6633 12.7512 21.2267L12 22.0248C11.8122 21.8057 11.5618 21.5162 11.2488 21.1562C10.9358 20.7963 10.3725 20.0764 9.55869 18.9966C8.74492 17.9168 8.03287 16.8683 7.42254 15.8511C6.81221 14.8339 6.25666 13.6836 5.75587 12.4004C5.25509 11.1171 5.0047 9.99037 5.0047 9.0201C5.0047 7.07956 5.68544 5.42856 7.04695 4.06705C8.40846 2.70554 10.0595 2.0248 12 2.0248Z" fill="#595454"/>
</svg>
