<svg data-token-name="Pinterest" width="24" height="24" viewBox="0 0 24 24" fill="none" xmlns="http://www.w3.org/2000/svg">
<path fill-rule="evenodd" clip-rule="evenodd" d="M12.2046 5C8.07252 5 5.875 7.45907 5.875 10.1397C5.875 11.3828 6.62309 12.9339 7.82121 13.4257C8.00239 13.5014 8.10174 13.4689 8.14265 13.3122C8.17772 13.1933 8.33552 12.6204 8.4115 12.3502C8.43488 12.2637 8.42319 12.188 8.34721 12.107C7.94979 11.68 7.63418 10.9018 7.63418 10.1722C7.63418 8.30218 9.23557 6.48625 11.9591 6.48625C14.3144 6.48625 15.9625 7.90765 15.9625 9.93975C15.9625 12.2367 14.6534 13.8256 12.9526 13.8256C12.0117 13.8256 11.3104 13.1392 11.5324 12.2907C11.8013 11.2801 12.3273 10.1938 12.3273 9.46416C12.3273 8.81021 11.9299 8.26975 11.1175 8.26975C10.159 8.26975 9.38168 9.15069 9.38168 10.3343C9.38168 11.0855 9.66806 11.5935 9.66806 11.5935C9.66806 11.5935 8.72125 15.1497 8.54592 15.8145C8.24785 16.9386 8.58683 18.76 8.61605 18.9167C8.63359 19.0032 8.73879 19.0302 8.79723 18.9599C8.89074 18.8464 10.0363 17.3278 10.3577 16.2306C10.4746 15.8307 10.9538 14.2093 10.9538 14.2093C11.2694 14.739 12.1812 15.1822 13.1514 15.1822C16.0385 15.1822 18.125 12.8258 18.125 9.90192C18.1133 7.09696 15.5301 5 12.2046 5Z" fill="#595454"/>
</svg>
