<svg data-token-name="Plumbing" width="24" height="24" viewBox="0 0 24 24" fill="none" xmlns="http://www.w3.org/2000/svg">
<g clip-path="url(#clip0)">
<path d="M2.00311 7.60706H7.64256V8.63095C7.64256 8.63095 7.65922 9.14317 8.15515 9.14317H9.18034V14.7728H7.12959C7.12959 14.7728 4.63626 14.6006 3.54052 13.2371C1.85663 11.1404 2.00348 9.14224 2.00348 9.14224L2.00311 7.60706Z" fill="#00446A"/>
<path d="M7.12985 3H2.51575V7.09482H7.12985V3Z" fill="#00446A"/>
<path d="M21.4841 16.8211H16.87V20.9159H21.4841V16.8211Z" fill="#00446A"/>
<path d="M14.307 9.65463H9.69299V14.2615H14.307V9.65463Z" fill="#00446A"/>
<path d="M21.9968 16.3098H16.3574V15.285C16.3574 15.285 16.3407 14.7728 15.8448 14.7728H14.8196V9.14316H16.8704C16.8704 9.14316 19.3637 9.31538 20.4592 10.6791C22.1433 12.7758 21.9963 14.7739 21.9963 14.7739L21.9968 16.3098Z" fill="#00446A"/>
</g>
<defs>
<clipPath id="clip0">
<rect width="20" height="17.9159" fill="white" transform="translate(2 3)"/>
</clipPath>
</defs>
</svg>
