<svg data-token-name="Print" width="24" height="24" viewBox="0 0 24 24" fill="none" xmlns="http://www.w3.org/2000/svg">
<path fill-rule="evenodd" clip-rule="evenodd" d="M17.9792 3V6.98309H5.98309V3H17.9792ZM18.9633 11.9971C19.2444 11.9971 19.4865 11.9034 19.6896 11.7159C19.8927 11.5285 19.9942 11.2942 19.9942 11.013C19.9942 10.7319 19.8927 10.4898 19.6896 10.2867C19.4865 10.0836 19.2444 9.98212 18.9633 9.98212C18.6821 9.98212 18.4478 10.0836 18.2604 10.2867C18.0729 10.4898 17.9792 10.7319 17.9792 11.013C17.9792 11.2942 18.0729 11.5285 18.2604 11.7159C18.4478 11.9034 18.6821 11.9971 18.9633 11.9971ZM15.9642 18.9792V14.0121H7.99806V18.9792H15.9642ZM18.9633 8.014C19.7755 8.014 20.4784 8.31078 21.072 8.90434C21.6655 9.4979 21.9623 10.2008 21.9623 11.013V17.0111H17.9792V20.9942H5.98309V17.0111H2V11.013C2 10.2008 2.29678 9.4979 2.89034 8.90434C3.4839 8.31078 4.18679 8.014 4.99903 8.014H18.9633Z" fill="#595454"/>
</svg>
