<svg data-token-name="Prop65WarningIcon" width="19" height="16" viewBox="0 0 19 16" fill="none" xmlns="http://www.w3.org/2000/svg">
<g clip-path="url(#clip0)">
<path d="M0.98879 15.5666H17.1226C17.3311 15.5666 17.5237 15.4554 17.628 15.2747C17.7323 15.0943 17.7323 14.8717 17.628 14.6912L9.56107 0.718905C9.45681 0.538349 9.26419 0.427124 9.05572 0.427124C8.84723 0.427124 8.65461 0.538349 8.55037 0.718905L0.48341 14.6912C0.379146 14.8717 0.379146 15.0943 0.48341 15.2747C0.587643 15.4553 0.780294 15.5666 0.98879 15.5666Z" fill="black"/>
<path d="M9.05569 2.18442L16.1061 14.3961H2.00523L9.05569 2.18442Z" fill="#FFFF00"/>
<path d="M9.05568 13.3786C9.5018 13.3786 9.86345 13.0169 9.86345 12.5708C9.86345 12.1247 9.5018 11.763 9.05568 11.763C8.60955 11.763 8.2479 12.1247 8.2479 12.5708C8.2479 13.0169 8.60955 13.3786 9.05568 13.3786Z" fill="black"/>
<path d="M9.54655 10.8542L10.126 5.56831C10.1733 5.1374 9.95891 4.71984 9.58117 4.5071C9.20349 4.29435 8.73531 4.32739 8.39127 4.59114C8.04723 4.85488 7.89367 5.29843 8.00102 5.71841L8.60336 10.9642C8.62273 11.1329 8.73074 11.2785 8.88663 11.3458C9.04252 11.4132 9.22257 11.3922 9.35878 11.2907C9.49492 11.1893 9.56655 11.0228 9.54655 10.8542Z" fill="black"/>
</g>
<defs>
<clipPath id="clip0">
<rect width="18.1607" height="16" fill="white"/>
</clipPath>
</defs>
</svg>
