<svg data-token-name="PurchaseHistory" width="24" height="24" viewBox="0 0 24 24" fill="none" xmlns="http://www.w3.org/2000/svg">
<path fill-rule="evenodd" clip-rule="evenodd" d="M4.93427 19.0657C6.89046 21.0219 9.24568 22 12 22C14.7543 22 17.1095 21.0219 19.0657 19.0657C21.0219 17.1095 22 14.7543 22 12C22 9.24568 21.0219 6.89046 19.0657 4.93427C17.1095 2.97808 14.7543 2 12 2C9.24568 2 6.89046 2.97808 4.93427 4.93427C2.97808 6.89046 2 9.24568 2 12C2 14.7543 2.97808 17.1095 4.93427 19.0657ZM11.27 16.755V18H12.59V16.74C14.615 16.545 15.605 15.36 15.605 13.83C15.605 11.955 14.015 11.4 12.59 11.04V9.09C13.205 9.24 13.805 9.54 14.3 9.99L15.395 8.55C14.645 7.875 13.715 7.44 12.59 7.32V6H11.27V7.29C9.41 7.485 8.3 8.67 8.3 10.065C8.3 11.94 9.845 12.465 11.27 12.825V15C10.325 14.835 9.575 14.355 9.065 13.815L8 15.315C8.75 16.08 9.815 16.635 11.27 16.755ZM12.59 13.155C13.175 13.35 13.61 13.59 13.61 14.04C13.61 14.475 13.265 14.88 12.59 15.015V13.155ZM11.285 10.695C10.7 10.515 10.31 10.305 10.31 9.9C10.31 9.435 10.655 9.09 11.285 9V10.695Z" fill="#1ABC81"/>
</svg>
