<svg data-token-name="Question" width="24" height="24" viewBox="0 0 24 24" fill="none" xmlns="http://www.w3.org/2000/svg">
<path fill-rule="evenodd" clip-rule="evenodd" d="M15.0516 11.2488C15.6776 10.6228 15.9906 9.87168 15.9906 8.99531C15.9906 7.89984 15.5994 6.96088 14.8169 6.1784C14.0344 5.39593 13.0955 5.00469 12 5.00469C10.9045 5.00469 9.96558 5.39593 9.1831 6.1784C8.40062 6.96088 8.00939 7.89984 8.00939 8.99531H9.98122C9.98122 8.46322 10.1847 7.99374 10.5915 7.58685C10.9984 7.17997 11.4679 6.97653 12 6.97653C12.5321 6.97653 13.0016 7.17997 13.4085 7.58685C13.8153 7.99374 14.0188 8.46322 14.0188 8.99531C14.0188 9.52739 13.8153 9.99687 13.4085 10.4038L12.1878 11.6714C11.4053 12.5164 11.0141 13.4554 11.0141 14.4883V15.0047H12.9859C12.9859 13.9718 13.3771 13.0329 14.1596 12.1878L15.0516 11.2488ZM12.9859 18.9953V17.0235H11.0141V18.9953H12.9859ZM4.9108 4.95775C6.88264 2.98591 9.24568 2 12 2C14.7543 2 17.1095 2.97808 19.0657 4.93427C21.0219 6.89046 22 9.24568 22 12C22 14.7543 21.0219 17.1095 19.0657 19.0657C17.1095 21.0219 14.7543 22 12 22C9.24568 22 6.89046 21.0219 4.93427 19.0657C2.97808 17.1095 2 14.7543 2 12C2 9.24568 2.97026 6.89829 4.9108 4.95775Z" fill="#595454"/>
</svg>
