<svg data-token-name="Search" width="24" height="24" viewBox="0 0 24 24" fill="none" xmlns="http://www.w3.org/2000/svg">
<path fill-rule="evenodd" clip-rule="evenodd" d="M9.52594 14.0384C10.7782 14.0384 11.8427 13.6001 12.7192 12.7235C13.5958 11.8469 14.0341 10.7825 14.0341 9.53018C14.0341 8.27789 13.5958 7.21347 12.7192 6.33687C11.8427 5.46027 10.7782 5.02198 9.52594 5.02198C8.27366 5.02198 7.20923 5.46027 6.33263 6.33687C5.45603 7.21347 5.01774 8.27789 5.01774 9.53018C5.01774 10.7825 5.45603 11.8469 6.33263 12.7235C7.20923 13.6001 8.27366 14.0384 9.52594 14.0384ZM15.5369 14.0384L20.5147 19.0162L19.0119 20.5189L14.0341 15.5411V14.7428L13.7524 14.461C12.5627 15.4942 11.1539 16.0107 9.52594 16.0107C7.71013 16.0107 6.16828 15.3846 4.90034 14.1323C3.6324 12.88 2.99844 11.346 2.99844 9.53018C2.99844 7.71436 3.6324 6.17251 4.90034 4.90457C6.16828 3.63664 7.71013 3.00268 9.52594 3.00268C11.3418 3.00268 12.8758 3.63664 14.1281 4.90457C15.3803 6.17251 16.0065 7.71436 16.0065 9.53018C16.0065 11.1581 15.4899 12.5669 14.4568 13.7566L14.7385 14.0384H15.5369Z" fill="#595454"/>
</svg>
