<svg data-token-name="Settings" width="24" height="24" viewBox="0 0 24 24" fill="none" xmlns="http://www.w3.org/2000/svg">
<path fill-rule="evenodd" clip-rule="evenodd" d="M9.53091 14.4883C10.2195 15.1768 11.0489 15.5211 12.0192 15.5211C12.9894 15.5211 13.8189 15.1768 14.5074 14.4883C15.196 13.7997 15.5403 12.9703 15.5403 12C15.5403 11.0297 15.196 10.2003 14.5074 9.51174C13.8189 8.82316 12.9894 8.47887 12.0192 8.47887C11.0489 8.47887 10.2195 8.82316 9.53091 9.51174C8.84233 10.2003 8.49804 11.0297 8.49804 12C8.49804 12.9703 8.84233 13.7997 9.53091 14.4883ZM19.484 12.9859L21.5966 14.6291C21.8157 14.7856 21.847 15.0047 21.6905 15.2864L19.6718 18.7606C19.5466 18.9797 19.3431 19.0423 19.0614 18.9484L16.5732 17.9624C15.9159 18.4319 15.3525 18.7606 14.883 18.9484L14.5074 21.5775C14.4448 21.8592 14.2883 22 14.038 22H10.0004C9.75 22 9.59351 21.8592 9.53091 21.5775L9.15532 18.9484C8.56064 18.698 7.99726 18.3693 7.46518 17.9624L4.97692 18.9484C4.69523 19.0423 4.49179 18.9797 4.36659 18.7606L2.34781 15.2864C2.19131 15.0047 2.22261 14.7856 2.44171 14.6291L4.55438 12.9859C4.52308 12.7668 4.50743 12.4382 4.50743 12C4.50743 11.5618 4.52308 11.2332 4.55438 11.0141L2.44171 9.37089C2.22261 9.2144 2.19131 8.99531 2.34781 8.71361L4.36659 5.23944C4.49179 5.02034 4.69523 4.95775 4.97692 5.05164L7.46518 6.03756C8.12246 5.56807 8.68584 5.23944 9.15532 5.05164L9.53091 2.42254C9.59351 2.14084 9.75 2 10.0004 2H14.038C14.2883 2 14.4448 2.14084 14.5074 2.42254L14.883 5.05164C15.4777 5.30204 16.0411 5.63067 16.5732 6.03756L19.0614 5.05164C19.3431 4.95775 19.5466 5.02034 19.6718 5.23944L21.6905 8.71361C21.847 8.99531 21.8157 9.2144 21.5966 9.37089L19.484 11.0141C19.5153 11.2332 19.5309 11.5618 19.5309 12C19.5309 12.4382 19.5153 12.7668 19.484 12.9859Z" fill="#595454"/>
</svg>
