<svg data-token-name="ShoppingCart" width="24" height="24" viewBox="0 0 24 24" fill="none" xmlns="http://www.w3.org/2000/svg">
<path fill-rule="evenodd" clip-rule="evenodd" d="M16.6129 18.6032C17.0187 18.1973 17.487 17.9944 18.0178 17.9944C18.5485 17.9944 19.009 18.1973 19.3993 18.6032C19.7896 19.009 19.9847 19.4773 19.9847 20.0081C19.9847 20.5389 19.7896 20.9994 19.3993 21.3896C19.009 21.7799 18.5485 21.975 18.0178 21.975C17.487 21.975 17.0187 21.7799 16.6129 21.3896C16.207 20.9994 16.0041 20.5389 16.0041 20.0081C16.0041 19.4773 16.207 19.009 16.6129 18.6032ZM2.00159 2.025H5.27976L6.21638 3.9919H21.015C21.296 3.9919 21.5301 4.09337 21.7174 4.2963C21.9048 4.49924 21.9984 4.7412 21.9984 5.02218C21.9984 5.17829 21.9516 5.33439 21.8579 5.49049L18.2988 11.9532C17.9241 12.64 17.3465 12.9835 16.566 12.9835H9.1199L8.23011 14.6225L8.18328 14.763C8.18328 14.9191 8.26133 14.9972 8.41743 14.9972H19.9847V17.0109H7.99595C7.4652 17.0109 7.0047 16.808 6.61444 16.4021C6.22418 15.9962 6.02905 15.5279 6.02905 14.9972C6.02905 14.685 6.1071 14.3728 6.26321 14.0606L7.62131 11.5785L4.01532 3.9919H2.00159V2.025ZM6.59102 18.6032C6.99689 18.1973 7.4652 17.9944 7.99595 17.9944C8.52671 17.9944 8.99501 18.1973 9.40088 18.6032C9.80675 19.009 10.0097 19.4773 10.0097 20.0081C10.0097 20.5389 9.80675 20.9994 9.40088 21.3896C8.99501 21.7799 8.52671 21.975 7.99595 21.975C7.4652 21.975 7.0047 21.7799 6.61444 21.3896C6.22418 20.9994 6.02905 20.5389 6.02905 20.0081C6.02905 19.4773 6.21637 19.009 6.59102 18.6032Z" fill="#595454"/>
</svg>
