<svg data-token-name="Showroom" width="24" height="24" viewBox="0 0 24 24" fill="none" xmlns="http://www.w3.org/2000/svg">
<g clip-path="url(#clip0)">
<path fill-rule="evenodd" clip-rule="evenodd" d="M17.9259 13.8519C17.9259 13.8519 17.857 12.3704 16.8148 12.3704H10.1481C10.1481 12.3704 8.66665 12.3907 8.66665 13.1111C8.66665 13.6004 8.66665 19.7778 8.66665 19.7778C8.66665 20.2078 8.66665 20.5185 8.66665 20.5185C8.66665 20.5185 5.33405 22.1441 1.99998 20.5185V8.2963C1.99998 8.2963 5.36183 9.96222 8.66665 8.2963V9.03704C8.77294 8.72296 10.1481 8.66667 10.1481 8.66667H15.7037C15.7037 8.66667 22 8.33074 22 13.8519H17.9259ZM15.3333 3.48148C15.3333 3.48148 8.66665 1.93815 8.66665 7.55556C8.66665 7.55556 5.33405 9.18111 1.99998 7.55556C1.99998 7.55556 1.57442 2 15.3333 2C15.3333 2 16.0741 2.04296 16.0741 2.74074C16.0741 3.43852 15.3333 3.48148 15.3333 3.48148Z" fill="#00446A"/>
</g>
<defs>
<clipPath id="clip0">
<rect width="20" height="19.2593" fill="white" transform="translate(2 2)"/>
</clipPath>
</defs>
</svg>
