<svg data-token-name="StoreSearch" width="24" height="24" viewBox="0 0 24 24" fill="none" xmlns="http://www.w3.org/2000/svg">
<path d="M20 4H4V6H20V4Z" fill="#595454"/>
<path fill-rule="evenodd" clip-rule="evenodd" d="M18 14C18.7287 14 19.4117 14.1946 20 14.5347C21.1958 15.2261 22 16.5187 22 18C22 18.74 21.79 19.43 21.43 20.02L24 22.59L22.59 24L20.02 21.43C19.43 21.78 18.74 22 18 22C15.79 22 14 20.21 14 18C14 15.79 15.79 14 18 14ZM18 16C16.8954 16 16 16.8954 16 18C16 19.1046 16.8954 20 18 20C18.3683 20 18.7133 19.9005 19.0096 19.7268C19.0939 19.6775 19.1742 19.6221 19.25 19.5614C19.3575 19.4752 19.456 19.3781 19.5436 19.2718C19.6166 19.1833 19.6821 19.0885 19.7392 18.9883C19.9052 18.6968 20 18.3595 20 18C20 16.8954 19.1046 16 18 16Z" fill="#595454"/>
<path d="M12 18C12 18.7013 12.1202 19.3745 12.3412 20H10V14H6V20H4V14H3V12L4 7H20L21 12V12.8023C20.1176 12.292 19.093 12 18 12C14.6854 12 12 14.6854 12 18Z" fill="#595454"/>
</svg>
