<svg data-token-name="Twitter" width="24" height="24" viewBox="0 0 24 24" fill="none" xmlns="http://www.w3.org/2000/svg">
<path fill-rule="evenodd" clip-rule="evenodd" d="M18.6908 8.18243C18.1985 8.38363 17.6697 8.51944 17.1139 8.57984C17.6806 8.26745 18.1161 7.7727 18.3214 7.18331C17.7906 7.47223 17.2034 7.68306 16.578 7.79578C16.0769 7.30526 15.3634 6.99864 14.5732 6.99864C13.057 6.99864 11.8285 8.12895 11.8285 9.52356C11.8285 9.7213 11.8523 9.91443 11.8992 10.0991C9.61747 9.99369 7.59468 8.98841 6.24029 7.46069C6.00438 7.83387 5.86886 8.26745 5.86886 8.73027C5.86886 9.60666 6.35365 10.3792 7.08982 10.8324C6.64017 10.8189 6.21687 10.7058 5.84669 10.5165C5.84627 10.5269 5.84627 10.5381 5.84627 10.5481C5.84627 11.7719 6.79242 12.7925 8.04851 13.0245C7.81846 13.0818 7.57585 13.113 7.32531 13.113C7.14796 13.113 6.97646 13.0972 6.80915 13.068C7.15799 14.0706 8.17232 14.8008 9.3732 14.8215C8.43416 15.4986 7.25043 15.903 5.96423 15.903C5.74254 15.903 5.52378 15.8911 5.3092 15.8676C6.52388 16.5832 7.96694 17.0014 9.5175 17.0014C14.567 17.0014 17.3289 13.1538 17.3289 9.81672C17.3289 9.70745 17.3255 9.59819 17.3205 9.4897C17.8571 9.13384 18.3223 8.68949 18.6908 8.18243Z" fill="#595454"/>
</svg>
