<svg data-token-name="User" width="24" height="24" viewBox="0 0 24 24" fill="none" xmlns="http://www.w3.org/2000/svg">
<path fill-rule="evenodd" clip-rule="evenodd" d="M12.0202 14.0319C13.7044 14.0319 15.4588 14.3984 17.2834 15.1313C19.1079 15.8643 20.0202 16.8233 20.0202 18.0085V20.0202H4.0202V18.0085C4.0202 16.8233 4.93247 15.8643 6.75704 15.1313C8.58162 14.3984 10.336 14.0319 12.0202 14.0319ZM12.0202 12.0202C10.9286 12.0202 9.99292 11.6304 9.21318 10.8506C8.43345 10.0709 8.04359 9.13524 8.04359 8.04362C8.04359 6.952 8.43345 6.00854 9.21318 5.21321C9.99292 4.41789 10.9286 4.02023 12.0202 4.02023C13.1118 4.02023 14.0475 4.41789 14.8272 5.21321C15.607 6.00854 15.9968 6.952 15.9968 8.04362C15.9968 9.13524 15.607 10.0709 14.8272 10.8506C14.0475 11.6304 13.1118 12.0202 12.0202 12.0202Z" fill="#595454"/>
</svg>
