<svg data-token-name="Vimeo" width="24" height="24" viewBox="0 0 24 24" fill="none" xmlns="http://www.w3.org/2000/svg">
<path fill-rule="evenodd" clip-rule="evenodd" d="M17.5637 9.52234C17.509 10.7618 16.6544 12.4571 15.0001 14.6081C13.2911 16.8571 11.8431 17.9815 10.6602 17.9815C9.92778 17.9815 9.30478 17.2958 8.79965 15.9285C8.4629 14.672 8.12193 13.4197 7.78518 12.1632C7.41054 10.7959 7.00643 10.1101 6.57286 10.1101C6.48025 10.1101 6.14771 10.3103 5.58786 10.7107L4.99854 9.93976C5.61732 9.3903 6.2319 8.83658 6.83385 8.28285C7.66311 7.55875 8.28189 7.17966 8.69863 7.14133C9.67521 7.04762 10.2772 7.72487 10.5045 9.17307C10.7486 10.7363 10.917 11.7074 11.0138 12.0865C11.2958 13.3814 11.6073 14.0331 11.9441 14.0331C12.2051 14.0331 12.6008 13.6114 13.1312 12.7723C13.6573 11.9332 13.9394 11.29 13.9773 10.8513C14.053 10.1272 13.771 9.76087 13.1312 9.76087C12.8281 9.76087 12.5208 9.82902 12.2009 9.96958C12.8197 7.9208 13.9983 6.92836 15.741 6.98373C17.0291 7.01355 17.6395 7.86117 17.5637 9.52234Z" fill="#595454"/>
</svg>
