<svg data-token-name="Visa" width="24" height="16" viewBox="0 0 24 16" fill="none" xmlns="http://www.w3.org/2000/svg">
<g clip-path="url(#clip0)">
<mask id="mask0" mask-type="alpha" maskUnits="userSpaceOnUse" x="0" y="4" width="24" height="8">
<path d="M11.8832 4.16397L10.2796 11.6605H8.34L9.94433 4.16397H11.8832ZM20.0423 9.0043L21.0632 6.18952L21.6509 9.0043H20.0423ZM22.2063 11.6605H24L22.4343 4.16397H20.7791C20.4068 4.16397 20.0929 4.3803 19.9536 4.71374L17.0437 11.6605H19.0796L19.4841 10.5405H21.972L22.2063 11.6605ZM17.1444 9.21274C17.1531 7.23441 14.4087 7.12519 14.4276 6.24119C14.4336 5.97241 14.6896 5.68663 15.2501 5.61341C15.5276 5.57719 16.2939 5.54908 17.162 5.94874L17.5028 4.35919C17.0358 4.18974 16.4357 4.02686 15.6883 4.02686C13.7717 4.02686 12.4223 5.04597 12.4116 6.50474C12.3988 7.58452 13.3744 8.18619 14.1096 8.54519C14.8648 8.91252 15.1181 9.14819 15.1153 9.47674C15.1097 9.97997 14.5127 10.2017 13.9546 10.2104C12.9796 10.2256 12.4137 9.94686 11.9628 9.73674L11.6117 11.3795C12.0643 11.5875 12.9008 11.7689 13.7682 11.7777C15.8057 11.7777 17.1381 10.7717 17.1444 9.21274ZM9.11211 4.16397L5.97 11.6605H3.92011L2.37389 5.67774C2.28 5.30941 2.19856 5.17419 1.91311 5.0193C1.447 4.76608 0.677222 4.52874 0 4.3813L0.0456667 4.16397H3.34578C3.76611 4.16397 4.14456 4.44363 4.24 4.92819L5.05667 9.2663L7.07511 4.16397H9.11211Z" fill="white"/>
</mask>
<g mask="url(#mask0)">
<path fill-rule="evenodd" clip-rule="evenodd" d="M11.8832 4.16397L10.2796 11.6605H8.34L9.94433 4.16397H11.8832ZM20.0423 9.0043L21.0632 6.18952L21.6509 9.0043H20.0423ZM22.2063 11.6605H24L22.4343 4.16397H20.7791C20.4068 4.16397 20.0929 4.3803 19.9536 4.71374L17.0437 11.6605H19.0796L19.4841 10.5405H21.972L22.2063 11.6605ZM17.1444 9.21274C17.1531 7.23441 14.4087 7.12519 14.4276 6.24119C14.4336 5.97241 14.6896 5.68663 15.2501 5.61341C15.5276 5.57719 16.2939 5.54908 17.162 5.94874L17.5028 4.35919C17.0358 4.18974 16.4357 4.02686 15.6883 4.02686C13.7717 4.02686 12.4223 5.04597 12.4116 6.50474C12.3988 7.58452 13.3744 8.18619 14.1096 8.54519C14.8648 8.91252 15.1181 9.14819 15.1153 9.47674C15.1097 9.97997 14.5127 10.2017 13.9546 10.2104C12.9796 10.2256 12.4137 9.94686 11.9628 9.73674L11.6117 11.3795C12.0643 11.5875 12.9008 11.7689 13.7682 11.7777C15.8057 11.7777 17.1381 10.7717 17.1444 9.21274ZM9.11211 4.16397L5.97 11.6605H3.92011L2.37389 5.67774C2.28 5.30941 2.19856 5.17419 1.91311 5.0193C1.447 4.76608 0.677222 4.52874 0 4.3813L0.0456667 4.16397H3.34578C3.76611 4.16397 4.14456 4.44363 4.24 4.92819L5.05667 9.2663L7.07511 4.16397H9.11211Z" fill="url(#paint0_linear)"/>
</g>
</g>
<defs>
<linearGradient id="paint0_linear" x1="0" y1="7.90231" x2="24" y2="7.90231" gradientUnits="userSpaceOnUse">
<stop stop-color="#1D1C45"/>
<stop offset="1" stop-color="#174489"/>
</linearGradient>
<clipPath id="clip0">
<rect width="24" height="7.77778" fill="white" transform="translate(0 4)"/>
</clipPath>
</defs>
</svg>
