<svg data-token-name="Warning" width="24" height="24" viewBox="0 0 24 24" fill="none" xmlns="http://www.w3.org/2000/svg">
<path fill-rule="evenodd" clip-rule="evenodd" d="M12 22C9.24568 22 6.89046 21.0219 4.93427 19.0657C2.97808 17.1095 2 14.7543 2 12C2 9.24568 2.97808 6.89046 4.93427 4.93427C6.89046 2.97808 9.24568 2 12 2C14.7543 2 17.1095 2.97808 19.0657 4.93427C21.0219 6.89046 22 9.24568 22 12C22 14.7543 21.0219 17.1095 19.0657 19.0657C17.1095 21.0219 14.7543 22 12 22ZM11.0141 15.0047V17.0235H12.9859V15.0047H11.0141ZM11.0141 6.97653V12.9859H12.9859V6.97653H11.0141Z" fill="#FF9D35"/>
</svg>
