<svg data-token-name="Waterworks" width="24" height="24" viewBox="0 0 24 24" fill="none" xmlns="http://www.w3.org/2000/svg">
<g clip-path="url(#clip0)">
<path d="M17.7173 10.8248V10.1969L15.4315 9.85833V8.56796H16.5651V6.53093H15.4451V5.76444C15.4451 4.98148 15.0562 4.27611 14.4404 3.77296C14.0306 3.43759 13.5191 3.18981 12.9491 3.06093V2H11.0917V3.06093C10.5217 3.19056 10.0103 3.43759 9.60044 3.77296C8.98451 4.27611 8.59562 4.98148 8.59581 5.76444V6.5313H7.47581V8.56833H8.60933V9.8587L6.32359 10.1969V10.8248H5.74951V13.083H6.32359V13.7106L8.60933 14.0493V20.0678L7.26247 20.433H7.26007C7.10474 20.4865 6.95964 20.566 6.83099 20.6681C6.71055 20.7615 6.6092 20.8771 6.53247 21.0087C6.44037 21.1707 6.39271 21.3542 6.39433 21.5406V21.8646C6.39438 21.9005 6.40865 21.9349 6.43403 21.9603C6.45941 21.9857 6.49381 22 6.5297 22C6.53441 21.9998 6.53911 21.9993 6.54377 21.9985H6.57081C6.57694 21.9995 6.58313 22 6.58933 22C6.59429 21.9998 6.59923 21.9993 6.60414 21.9985H17.436C17.4409 21.9993 17.4458 21.9998 17.4508 22C17.457 22 17.4632 21.9995 17.4693 21.9985H17.4964C17.501 21.9993 17.5057 21.9998 17.5104 22C17.5463 22 17.5807 21.9857 17.6061 21.9603C17.6315 21.9349 17.6458 21.9005 17.6458 21.8646V21.5406C17.6474 21.3542 17.5998 21.1707 17.5077 21.0087C17.4309 20.8771 17.3296 20.7615 17.2091 20.6681C17.0805 20.566 16.9354 20.4865 16.7801 20.433H16.7777L15.4308 20.0678V14.0493L17.7165 13.7106V13.083H18.2906V10.8248H17.7173ZM12.0204 14.585C10.6217 14.585 9.4834 13.447 9.4834 12.048C9.4834 10.6489 10.6214 9.51093 12.0204 9.51093C13.4195 9.51093 14.5575 10.6489 14.5575 12.048C14.5575 13.447 13.4191 14.585 12.0204 14.585Z" fill="#00446A"/>
<path d="M12.0204 10.008C11.6169 10.008 11.2224 10.1276 10.8869 10.3518C10.5513 10.576 10.2898 10.8947 10.1354 11.2675C9.98093 11.6403 9.94052 12.0506 10.0192 12.4464C10.098 12.8421 10.2923 13.2057 10.5777 13.4911C10.863 13.7764 11.2266 13.9707 11.6224 14.0495C12.0182 14.1282 12.4284 14.0878 12.8013 13.9333C13.1741 13.7789 13.4927 13.5174 13.7169 13.1819C13.9412 12.8463 14.0608 12.4519 14.0608 12.0483C14.0602 11.5074 13.8451 10.9887 13.4626 10.6062C13.08 10.2237 12.5614 10.0086 12.0204 10.008ZM12.3723 12.6561H11.6686L11.3176 12.0481L11.6686 11.4404H12.3723L12.7232 12.0483L12.3723 12.6561Z" fill="#00446A"/>
</g>
<defs>
<clipPath id="clip0">
<rect width="12.5406" height="20" fill="white" transform="translate(5.75 2)"/>
</clipPath>
</defs>
</svg>
