<svg data-token-name="Weldel" width="16" height="17" viewBox="0 0 16 17" fill="none"
    xmlns="http://www.w3.org/2000/svg">
    <g clip-path="url(#clip0)">
        <path d="M8.06255 12.3021V8.50367C3.84013 8.50367 0.417114 11.905 0.417114 16.1004H4.24C4.24 14.0028 5.95108 12.3023 8.06215 12.3021H8.06255ZM11.7651 7.55472C11.8434 7.85799 11.8852 8.17583 11.8852 8.50367C11.8852 10.6015 10.174 12.3019 8.06255 12.3021H8.06215V16.0996H8.11429C12.3128 16.0718 15.7081 12.682 15.7081 8.50367C15.7081 8.18234 15.6879 7.86567 15.6488 7.55472H11.7651ZM4.35994 9.45225C4.28165 9.14874 4.23963 8.8309 4.23963 8.50319C4.23963 6.40548 5.95096 4.70476 8.06255 4.70476V0.907227H8.01041C3.81195 0.935191 0.417114 4.32497 0.417114 8.50319C0.417114 8.82464 0.437321 9.14118 0.476069 9.45225H4.35994ZM8.06255 8.50367V4.70527C10.1735 4.70527 11.8852 3.0049 11.8852 0.907227H15.7081C15.7081 5.10273 12.2851 8.50367 8.06255 8.50367Z" fill="#00446A"/>
    </g>
    <defs>
        <clipPath id="clip0">
            <rect width="16" height="15.8153" fill="white" transform="translate(0 0.592285)"/>
        </clipPath>
    </defs>
</svg>
