<svg data-token-name="Youtube" width="24" height="24" viewBox="0 0 24 24" fill="none" xmlns="http://www.w3.org/2000/svg">
<path fill-rule="evenodd" clip-rule="evenodd" d="M19.1092 12.5372C19.1092 13.688 18.9671 14.8388 18.9671 14.8388C18.9671 14.8388 18.8284 15.8181 18.4019 16.25C17.8616 16.816 17.2555 16.8187 16.9774 16.8516C14.9877 16.9956 12 17 12 17C12 17 8.30323 16.9662 7.16576 16.8578C6.8494 16.7983 6.13848 16.816 5.59818 16.25C5.17162 15.8181 5.03299 14.8388 5.03299 14.8388C5.03299 14.8388 4.89081 13.688 4.89081 12.5372V11.4584C4.89081 10.3076 5.03299 9.15765 5.03299 9.15765C5.03299 9.15765 5.17162 8.17746 5.59818 7.74558C6.13848 7.17951 6.74454 7.17684 7.02268 7.14396C9.01238 7 11.9974 7 11.9974 7H12.0027C12.0027 7 14.9877 7 16.9774 7.14396C17.2555 7.17684 17.8616 7.17951 18.4019 7.74558C18.8284 8.17746 18.9671 9.15765 18.9671 9.15765C18.9671 9.15765 19.1092 10.3076 19.1092 11.4584V12.5372ZM10.5321 13.8443L14.3738 11.8537L10.5313 9.84893L10.5321 13.8443Z" fill="#595454"/>
</svg>
